<mxfile host="app.diagrams.net" modified="2020-03-15T12:05:12.326Z" agent="Mozilla/5.0 (X11; Ubuntu; Linux x86_64; rv:73.0) Gecko/20100101 Firefox/73.0" etag="hSuXFpqZ6vXR_p0xsooG" version="12.8.5" type="github">
  <diagram id="6a731a19-8d31-9384-78a2-239565b7b9f0" name="Page-1">
    <mxGraphModel dx="2370" dy="1707" grid="1" gridSize="10" guides="1" tooltips="1" connect="1" arrows="1" fold="1" page="1" pageScale="1" pageWidth="1169" pageHeight="827" background="#ffffff" math="0" shadow="0">
      <root>
        <mxCell id="0" />
        <mxCell id="1" parent="0" />
        <mxCell id="1350" value="Mammal" style="ellipse;whiteSpace=wrap;html=1;shadow=0;fontFamily=Helvetica;fontSize=20;fontColor=#FFFFFF;align=center;strokeWidth=3;fillColor=#1699D3;strokeColor=none;" parent="1" vertex="1">
          <mxGeometry x="542" y="291.5" width="120" height="120" as="geometry" />
        </mxCell>
        <mxCell id="1351" value="&lt;div style=&quot;font-size: 24px&quot;&gt;Сопоставление с образцом алгебраических типов данных&lt;/div&gt;" style="rounded=1;whiteSpace=wrap;html=1;shadow=0;fontFamily=Comic Sans MS;fontSize=24;fontColor=#000000;align=center;strokeWidth=3;fillColor=#F08705;strokeColor=none;gradientColor=none;" parent="1" vertex="1">
          <mxGeometry x="1130" y="390" width="470" height="130" as="geometry" />
        </mxCell>
        <mxCell id="1358" value="Dolphin" style="rounded=1;fillColor=#64BBE2;strokeColor=none;strokeWidth=3;shadow=0;html=1;fontColor=#FFFFFF;" parent="1" vertex="1">
          <mxGeometry x="348.5" y="416.5" width="130" height="40" as="geometry" />
        </mxCell>
        <mxCell id="1359" style="endArrow=none;strokeWidth=6;strokeColor=#1699D3;html=1;" parent="1" source="1515" target="1350" edge="1">
          <mxGeometry relative="1" as="geometry" />
        </mxCell>
        <mxCell id="1360" style="endArrow=none;strokeWidth=6;strokeColor=#f08705;html=1;" parent="1" source="1515" target="1351" edge="1">
          <mxGeometry relative="1" as="geometry" />
        </mxCell>
        <mxCell id="1367" value="Lion" style="rounded=1;fillColor=#64BBE2;strokeColor=none;strokeWidth=3;shadow=0;html=1;fontColor=#FFFFFF;" parent="1" vertex="1">
          <mxGeometry x="418.5" y="466.5" width="130" height="40" as="geometry" />
        </mxCell>
        <mxCell id="1368" value="Elephant" style="rounded=1;fillColor=#64BBE2;strokeColor=none;strokeWidth=3;shadow=0;html=1;fontColor=#FFFFFF;" parent="1" vertex="1">
          <mxGeometry x="318.5" y="346.5" width="130" height="40" as="geometry" />
        </mxCell>
        <mxCell id="1369" value="Cat" style="rounded=1;fillColor=#64BBE2;strokeColor=none;strokeWidth=3;shadow=0;html=1;fontColor=#FFFFFF;" parent="1" vertex="1">
          <mxGeometry x="318.5" y="271.5" width="130" height="40" as="geometry" />
        </mxCell>
        <mxCell id="1370" value="Giraffe" style="rounded=1;fillColor=#64BBE2;strokeColor=none;strokeWidth=3;shadow=0;html=1;fontColor=#FFFFFF;" parent="1" vertex="1">
          <mxGeometry x="358.5" y="206.5" width="130" height="40" as="geometry" />
        </mxCell>
        <mxCell id="1371" value="Dog" style="rounded=1;fillColor=#64BBE2;strokeColor=none;strokeWidth=3;shadow=0;html=1;fontColor=#FFFFFF;" parent="1" vertex="1">
          <mxGeometry x="408.5" y="146.5" width="130" height="40" as="geometry" />
        </mxCell>
        <mxCell id="1372" value="Donkey" style="rounded=1;fillColor=#64BBE2;strokeColor=none;strokeWidth=3;shadow=0;html=1;fontColor=#FFFFFF;" parent="1" vertex="1">
          <mxGeometry x="488.5" y="86.5" width="130" height="40" as="geometry" />
        </mxCell>
        <mxCell id="1373" value="Leopard" style="rounded=1;fillColor=#64BBE2;strokeColor=none;strokeWidth=3;shadow=0;html=1;fontColor=#FFFFFF;" parent="1" vertex="1">
          <mxGeometry x="608.5" y="146.5" width="130" height="40" as="geometry" />
        </mxCell>
        <mxCell id="1374" value="Horse" style="rounded=1;fillColor=#64BBE2;strokeColor=none;strokeWidth=3;shadow=0;html=1;fontColor=#FFFFFF;" parent="1" vertex="1">
          <mxGeometry x="663.5" y="206.5" width="130" height="40" as="geometry" />
        </mxCell>
        <mxCell id="1375" value="Zebra" style="rounded=1;fillColor=#64BBE2;strokeColor=none;strokeWidth=3;shadow=0;html=1;fontColor=#FFFFFF;" parent="1" vertex="1">
          <mxGeometry x="698.5" y="266.5" width="130" height="40" as="geometry" />
        </mxCell>
        <mxCell id="1376" value="Gazelle" style="rounded=1;fillColor=#64BBE2;strokeColor=none;strokeWidth=3;shadow=0;html=1;fontColor=#FFFFFF;" parent="1" vertex="1">
          <mxGeometry x="713.5" y="346.5" width="130" height="40" as="geometry" />
        </mxCell>
        <mxCell id="1377" value="" style="edgeStyle=none;endArrow=none;strokeWidth=3;strokeColor=#64BBE2;html=1;" parent="1" source="1350" target="1376" edge="1">
          <mxGeometry x="-221.5" y="56.5" width="100" height="100" as="geometry">
            <mxPoint x="-221.5" y="156.5" as="sourcePoint" />
            <mxPoint x="-121.5" y="56.5" as="targetPoint" />
          </mxGeometry>
        </mxCell>
        <mxCell id="1378" value="" style="edgeStyle=none;endArrow=none;strokeWidth=3;strokeColor=#64BBE2;html=1;" parent="1" source="1350" target="1367" edge="1">
          <mxGeometry x="-221.5" y="56.5" width="100" height="100" as="geometry">
            <mxPoint x="-221.5" y="156.5" as="sourcePoint" />
            <mxPoint x="-121.5" y="56.5" as="targetPoint" />
          </mxGeometry>
        </mxCell>
        <mxCell id="1379" value="" style="edgeStyle=none;endArrow=none;strokeWidth=3;strokeColor=#64BBE2;html=1;" parent="1" source="1350" target="1358" edge="1">
          <mxGeometry x="-221.5" y="56.5" width="100" height="100" as="geometry">
            <mxPoint x="-221.5" y="156.5" as="sourcePoint" />
            <mxPoint x="-121.5" y="56.5" as="targetPoint" />
          </mxGeometry>
        </mxCell>
        <mxCell id="1380" value="" style="edgeStyle=none;endArrow=none;strokeWidth=3;strokeColor=#64BBE2;html=1;" parent="1" source="1350" target="1368" edge="1">
          <mxGeometry x="-221.5" y="56.5" width="100" height="100" as="geometry">
            <mxPoint x="-221.5" y="156.5" as="sourcePoint" />
            <mxPoint x="-121.5" y="56.5" as="targetPoint" />
          </mxGeometry>
        </mxCell>
        <mxCell id="1381" value="" style="edgeStyle=none;endArrow=none;strokeWidth=3;strokeColor=#64BBE2;html=1;" parent="1" source="1350" target="1369" edge="1">
          <mxGeometry x="-221.5" y="56.5" width="100" height="100" as="geometry">
            <mxPoint x="-221.5" y="156.5" as="sourcePoint" />
            <mxPoint x="-121.5" y="56.5" as="targetPoint" />
          </mxGeometry>
        </mxCell>
        <mxCell id="1382" value="" style="edgeStyle=none;endArrow=none;strokeWidth=3;strokeColor=#64BBE2;html=1;" parent="1" source="1350" target="1370" edge="1">
          <mxGeometry x="-221.5" y="56.5" width="100" height="100" as="geometry">
            <mxPoint x="-221.5" y="156.5" as="sourcePoint" />
            <mxPoint x="-121.5" y="56.5" as="targetPoint" />
          </mxGeometry>
        </mxCell>
        <mxCell id="1383" value="" style="edgeStyle=none;endArrow=none;strokeWidth=3;strokeColor=#64BBE2;html=1;" parent="1" source="1350" target="1371" edge="1">
          <mxGeometry x="-221.5" y="56.5" width="100" height="100" as="geometry">
            <mxPoint x="-221.5" y="156.5" as="sourcePoint" />
            <mxPoint x="-121.5" y="56.5" as="targetPoint" />
          </mxGeometry>
        </mxCell>
        <mxCell id="1384" value="" style="edgeStyle=none;endArrow=none;strokeWidth=3;strokeColor=#64BBE2;html=1;" parent="1" source="1350" target="1372" edge="1">
          <mxGeometry x="-221.5" y="56.5" width="100" height="100" as="geometry">
            <mxPoint x="-221.5" y="156.5" as="sourcePoint" />
            <mxPoint x="-121.5" y="56.5" as="targetPoint" />
          </mxGeometry>
        </mxCell>
        <mxCell id="1385" value="" style="edgeStyle=none;endArrow=none;strokeWidth=3;strokeColor=#64BBE2;html=1;" parent="1" source="1350" target="1373" edge="1">
          <mxGeometry x="-221.5" y="56.5" width="100" height="100" as="geometry">
            <mxPoint x="-221.5" y="156.5" as="sourcePoint" />
            <mxPoint x="-121.5" y="56.5" as="targetPoint" />
          </mxGeometry>
        </mxCell>
        <mxCell id="1386" value="" style="edgeStyle=none;endArrow=none;strokeWidth=3;strokeColor=#64BBE2;html=1;" parent="1" source="1350" target="1374" edge="1">
          <mxGeometry x="-221.5" y="56.5" width="100" height="100" as="geometry">
            <mxPoint x="-221.5" y="156.5" as="sourcePoint" />
            <mxPoint x="-121.5" y="56.5" as="targetPoint" />
          </mxGeometry>
        </mxCell>
        <mxCell id="1387" value="" style="edgeStyle=none;endArrow=none;strokeWidth=3;strokeColor=#64BBE2;html=1;" parent="1" source="1350" target="1375" edge="1">
          <mxGeometry x="-221.5" y="56.5" width="100" height="100" as="geometry">
            <mxPoint x="-221.5" y="156.5" as="sourcePoint" />
            <mxPoint x="-121.5" y="56.5" as="targetPoint" />
          </mxGeometry>
        </mxCell>
        <mxCell id="1393" value="&lt;div&gt;Pattern guards &amp;amp; &lt;br&gt;transformational patterns&lt;/div&gt;&lt;div&gt;in Haskell&lt;/div&gt;" style="rounded=1;fillColor=#f5af58;strokeColor=none;strokeWidth=7;shadow=0;html=1;fontColor=#000000;fontSize=22;fontFamily=Comic Sans MS;" parent="1" vertex="1">
          <mxGeometry x="1430" y="40" width="310" height="110" as="geometry" />
        </mxCell>
        <mxCell id="1394" value="Views" style="rounded=1;fillColor=#f5af58;strokeColor=none;strokeWidth=7;shadow=0;html=1;fontColor=#000000;fontSize=22;fontFamily=Comic Sans MS;" parent="1" vertex="1">
          <mxGeometry x="1670" y="241.5" width="130" height="78.5" as="geometry" />
        </mxCell>
        <mxCell id="1402" value="" style="edgeStyle=none;endArrow=none;strokeWidth=7;strokeColor=#F5AF58;html=1;fontSize=22;fontFamily=Comic Sans MS;" parent="1" source="1351" target="8fD-62BuHi758IAnA8GY-1560" edge="1">
          <mxGeometry x="3.5" y="21.5" width="100" height="100" as="geometry">
            <mxPoint x="3.5" y="121.5" as="sourcePoint" />
            <mxPoint x="1016.1766595289082" y="241.5" as="targetPoint" />
          </mxGeometry>
        </mxCell>
        <mxCell id="1403" value="" style="edgeStyle=none;endArrow=none;strokeWidth=7;strokeColor=#F5AF58;html=1;fontSize=22;fontFamily=Comic Sans MS;" parent="1" source="1351" target="8fD-62BuHi758IAnA8GY-1559" edge="1">
          <mxGeometry x="3.5" y="21.5" width="100" height="100" as="geometry">
            <mxPoint x="3.5" y="121.5" as="sourcePoint" />
            <mxPoint x="1046.7708688245316" y="181.5" as="targetPoint" />
          </mxGeometry>
        </mxCell>
        <mxCell id="1404" value="" style="edgeStyle=none;endArrow=none;strokeWidth=7;strokeColor=#F5AF58;html=1;fontSize=22;fontFamily=Comic Sans MS;" parent="1" source="1351" target="8fD-62BuHi758IAnA8GY-1558" edge="1">
          <mxGeometry x="3.5" y="21.5" width="100" height="100" as="geometry">
            <mxPoint x="3.5" y="121.5" as="sourcePoint" />
            <mxPoint x="1108.8606789250357" y="121.5" as="targetPoint" />
          </mxGeometry>
        </mxCell>
        <mxCell id="1405" value="" style="edgeStyle=none;endArrow=none;strokeWidth=7;strokeColor=#F5AF58;html=1;fontSize=22;fontFamily=Comic Sans MS;" parent="1" source="1351" target="1393" edge="1">
          <mxGeometry x="3.5" y="21.5" width="100" height="100" as="geometry">
            <mxPoint x="3.5" y="121.5" as="sourcePoint" />
            <mxPoint x="103.5" y="21.5" as="targetPoint" />
          </mxGeometry>
        </mxCell>
        <mxCell id="1406" value="" style="edgeStyle=none;endArrow=none;strokeWidth=7;strokeColor=#F5AF58;html=1;fontSize=22;fontFamily=Comic Sans MS;" parent="1" source="1351" target="1394" edge="1">
          <mxGeometry x="3.5" y="21.5" width="100" height="100" as="geometry">
            <mxPoint x="3.5" y="121.5" as="sourcePoint" />
            <mxPoint x="103.5" y="21.5" as="targetPoint" />
          </mxGeometry>
        </mxCell>
        <mxCell id="1515" value="Pattern &lt;br&gt;matching &lt;br&gt;&lt;div&gt;survey&lt;/div&gt;" style="ellipse;whiteSpace=wrap;html=1;shadow=0;fontFamily=Helvetica;fontSize=30;fontColor=#2F5B7C;align=center;strokeColor=#2F5B7C;strokeWidth=6;fillColor=#FFFFFF;fontStyle=1;gradientColor=none;" parent="1" vertex="1">
          <mxGeometry x="980" y="720" width="270" height="270" as="geometry" />
        </mxCell>
        <mxCell id="8fD-62BuHi758IAnA8GY-1542" value="&lt;div style=&quot;font-size: 19px;&quot;&gt;Мотивация&lt;/div&gt;&lt;div style=&quot;font-size: 19px;&quot;&gt;&lt;br style=&quot;font-size: 19px;&quot;&gt;Расширить сопосатвление с образцом в языке OCaml, так, чтобы было полезно и не сказалось на производительности&lt;/div&gt;&lt;div style=&quot;font-size: 19px;&quot;&gt;&lt;br style=&quot;font-size: 19px;&quot;&gt;&lt;/div&gt;" style="rounded=0;whiteSpace=wrap;html=1;fontSize=19;" parent="1" vertex="1">
          <mxGeometry x="530" y="860" width="331.5" height="190" as="geometry" />
        </mxCell>
        <mxCell id="8fD-62BuHi758IAnA8GY-1543" value="&lt;div&gt;Эффективная компиляция&lt;/div&gt;&lt;div&gt;&lt;br&gt;&lt;/div&gt;" style="ellipse;whiteSpace=wrap;html=1;shadow=0;fontFamily=Helvetica;fontSize=20;fontColor=#000000;align=center;strokeWidth=3;fillColor=#F08705;strokeColor=none;gradientColor=none;" parent="1" vertex="1">
          <mxGeometry x="1400" y="785" width="260" height="140" as="geometry" />
        </mxCell>
        <mxCell id="8fD-62BuHi758IAnA8GY-1544" value="&lt;div&gt;Расширение сопоставления с образцом за алгебраические типы&lt;/div&gt;&lt;div&gt;&lt;br&gt;&lt;/div&gt;" style="ellipse;whiteSpace=wrap;html=1;shadow=0;fontFamily=Helvetica;fontSize=20;fontColor=#000000;align=center;strokeWidth=3;fillColor=#F08705;strokeColor=none;gradientColor=none;" parent="1" vertex="1">
          <mxGeometry x="1169" y="1110" width="260" height="140" as="geometry" />
        </mxCell>
        <mxCell id="8fD-62BuHi758IAnA8GY-1545" style="endArrow=none;strokeWidth=6;strokeColor=#000000;html=1;" parent="1" source="1515" target="8fD-62BuHi758IAnA8GY-1544" edge="1">
          <mxGeometry relative="1" as="geometry">
            <mxPoint x="1159.2772568146702" y="697.4575318437073" as="sourcePoint" />
            <mxPoint x="1237.620617414872" y="516.4812934365973" as="targetPoint" />
          </mxGeometry>
        </mxCell>
        <mxCell id="8fD-62BuHi758IAnA8GY-1546" value="" style="html=1;strokeColor=#000000;fontSize=19;fontColor=#000000;strokeWidth=6;endArrow=none;endFill=0;" parent="1" source="1515" target="8fD-62BuHi758IAnA8GY-1543" edge="1">
          <mxGeometry width="50" height="50" relative="1" as="geometry">
            <mxPoint x="1480" y="720" as="sourcePoint" />
            <mxPoint x="1530" y="670" as="targetPoint" />
          </mxGeometry>
        </mxCell>
        <mxCell id="8fD-62BuHi758IAnA8GY-1547" value="Range образцы&lt;br&gt;1..120" style="rounded=1;whiteSpace=wrap;html=1;fontSize=19;fontColor=#000000;" parent="1" vertex="1">
          <mxGeometry x="1564" y="1320" width="190" height="100" as="geometry" />
        </mxCell>
        <mxCell id="8fD-62BuHi758IAnA8GY-1552" value="&lt;div&gt;Полиморфные вариантные типы OCaml&lt;/div&gt;" style="rounded=1;whiteSpace=wrap;html=1;fontSize=19;fontColor=#000000;" parent="1" vertex="1">
          <mxGeometry x="1320" y="1320" width="170" height="110" as="geometry" />
        </mxCell>
        <mxCell id="8fD-62BuHi758IAnA8GY-1553" value="GADT" style="rounded=1;whiteSpace=wrap;html=1;fontSize=19;fontColor=#000000;" parent="1" vertex="1">
          <mxGeometry x="1169" y="1340" width="120" height="70" as="geometry" />
        </mxCell>
        <mxCell id="8fD-62BuHi758IAnA8GY-1554" value="&lt;div&gt;Критерии удачности реализации&lt;/div&gt;" style="ellipse;whiteSpace=wrap;html=1;shadow=0;fontFamily=Helvetica;fontSize=30;fontColor=#2F5B7C;align=center;strokeColor=#2F5B7C;strokeWidth=6;fillColor=#FFFFFF;fontStyle=1;gradientColor=none;" parent="1" vertex="1">
          <mxGeometry x="2390" y="351.5" width="270" height="270" as="geometry" />
        </mxCell>
        <mxCell id="8fD-62BuHi758IAnA8GY-1555" value="&lt;div style=&quot;font-size: 24px;&quot;&gt;Удобно пользоваться&lt;/div&gt;" style="shape=hexagon;perimeter=hexagonPerimeter2;whiteSpace=wrap;html=1;fontSize=24;fontColor=#000000;" parent="1" vertex="1">
          <mxGeometry x="2650" y="290" width="260" height="81.5" as="geometry" />
        </mxCell>
        <mxCell id="8fD-62BuHi758IAnA8GY-1556" value="&lt;div style=&quot;font-size: 24px;&quot;&gt;Эффективно компилируется&lt;/div&gt;" style="shape=hexagon;perimeter=hexagonPerimeter2;whiteSpace=wrap;html=1;fontSize=24;fontColor=#000000;horizontal=1;" parent="1" vertex="1">
          <mxGeometry x="2682" y="506.5" width="240" height="110" as="geometry" />
        </mxCell>
        <mxCell id="8fD-62BuHi758IAnA8GY-1558" value="&lt;div&gt;Object patterns &lt;br&gt;&lt;/div&gt;&lt;div&gt;in Scala&lt;br&gt;&lt;/div&gt;" style="rounded=1;fillColor=#f5af58;strokeColor=none;strokeWidth=7;shadow=0;html=1;fontColor=#000000;fontSize=22;fontFamily=Comic Sans MS;" parent="1" vertex="1">
          <mxGeometry x="1210" y="46.5" width="206.5" height="80" as="geometry" />
        </mxCell>
        <mxCell id="8fD-62BuHi758IAnA8GY-1559" value="Active patterns &lt;br&gt;&lt;div&gt;in F#&lt;br&gt;&lt;/div&gt;" style="rounded=1;fillColor=#f5af58;strokeColor=none;strokeWidth=7;shadow=0;html=1;fontColor=#000000;fontSize=22;fontFamily=Comic Sans MS;" parent="1" vertex="1">
          <mxGeometry x="1120" y="146.5" width="190" height="80" as="geometry" />
        </mxCell>
        <mxCell id="8fD-62BuHi758IAnA8GY-1560" value="Pattern Synonyms&lt;br&gt;&lt;div&gt;in Haskell&lt;/div&gt;" style="rounded=1;fillColor=#f5af58;strokeColor=none;strokeWidth=7;shadow=0;html=1;fontColor=#000000;fontSize=22;fontFamily=Comic Sans MS;" parent="1" vertex="1">
          <mxGeometry x="890" y="181.5" width="211.5" height="110" as="geometry" />
        </mxCell>
        <mxCell id="bMdo5Hn-U5GAJIpTpXzk-1515" value="Жестко заданный вид образцов" style="shape=hexagon;perimeter=hexagonPerimeter2;whiteSpace=wrap;html=1;fontSize=19;fontColor=#000000;" vertex="1" parent="1">
          <mxGeometry x="2350" y="746.5" width="190" height="100" as="geometry" />
        </mxCell>
        <mxCell id="bMdo5Hn-U5GAJIpTpXzk-1516" value="Жестко заданная семантика правил" style="shape=hexagon;perimeter=hexagonPerimeter2;whiteSpace=wrap;html=1;fontSize=19;fontColor=#000000;" vertex="1" parent="1">
          <mxGeometry x="2350" y="950" width="190" height="100" as="geometry" />
        </mxCell>
        <mxCell id="bMdo5Hn-U5GAJIpTpXzk-1517" value="" style="endArrow=classic;html=1;" edge="1" parent="1" source="8fD-62BuHi758IAnA8GY-1554" target="8fD-62BuHi758IAnA8GY-1555">
          <mxGeometry width="50" height="50" relative="1" as="geometry">
            <mxPoint x="2350" y="510" as="sourcePoint" />
            <mxPoint x="2400" y="460" as="targetPoint" />
          </mxGeometry>
        </mxCell>
        <mxCell id="bMdo5Hn-U5GAJIpTpXzk-1518" value="" style="endArrow=classic;html=1;" edge="1" parent="1" source="8fD-62BuHi758IAnA8GY-1554" target="8fD-62BuHi758IAnA8GY-1556">
          <mxGeometry width="50" height="50" relative="1" as="geometry">
            <mxPoint x="2571.2406094215003" y="446.3478279926712" as="sourcePoint" />
            <mxPoint x="2704.193723223042" y="367.4933928663604" as="targetPoint" />
          </mxGeometry>
        </mxCell>
        <mxCell id="bMdo5Hn-U5GAJIpTpXzk-1519" value="" style="endArrow=classic;html=1;" edge="1" parent="1" source="bMdo5Hn-U5GAJIpTpXzk-1521" target="bMdo5Hn-U5GAJIpTpXzk-1515">
          <mxGeometry width="50" height="50" relative="1" as="geometry">
            <mxPoint x="1951.2406094215003" y="1066.3478279926712" as="sourcePoint" />
            <mxPoint x="2084.193723223042" y="987.4933928663604" as="targetPoint" />
          </mxGeometry>
        </mxCell>
        <mxCell id="bMdo5Hn-U5GAJIpTpXzk-1520" value="" style="endArrow=classic;html=1;" edge="1" parent="1" source="bMdo5Hn-U5GAJIpTpXzk-1521" target="bMdo5Hn-U5GAJIpTpXzk-1516">
          <mxGeometry width="50" height="50" relative="1" as="geometry">
            <mxPoint x="2213.059701492538" y="923.1417910447763" as="sourcePoint" />
            <mxPoint x="2376.940298507463" y="854.8582089552237" as="targetPoint" />
          </mxGeometry>
        </mxCell>
        <mxCell id="bMdo5Hn-U5GAJIpTpXzk-1521" value="&lt;div&gt;Существующие&lt;br&gt;&lt;/div&gt;&lt;div&gt;ограничения&lt;br&gt;&lt;/div&gt;" style="shape=hexagon;perimeter=hexagonPerimeter2;whiteSpace=wrap;html=1;fontSize=19;fontColor=#000000;" vertex="1" parent="1">
          <mxGeometry x="2670" y="826.5" width="190" height="100" as="geometry" />
        </mxCell>
        <mxCell id="bMdo5Hn-U5GAJIpTpXzk-1522" value="" style="endArrow=classic;html=1;fontSize=24;horizontal=1;strokeWidth=2;" edge="1" parent="1" source="8fD-62BuHi758IAnA8GY-1544" target="8fD-62BuHi758IAnA8GY-1553">
          <mxGeometry width="50" height="50" relative="1" as="geometry">
            <mxPoint x="1720" y="1300" as="sourcePoint" />
            <mxPoint x="1770" y="1250" as="targetPoint" />
          </mxGeometry>
        </mxCell>
        <mxCell id="bMdo5Hn-U5GAJIpTpXzk-1523" value="" style="endArrow=classic;html=1;strokeWidth=2;fontSize=24;entryX=0.5;entryY=0;entryDx=0;entryDy=0;" edge="1" parent="1" source="8fD-62BuHi758IAnA8GY-1544" target="8fD-62BuHi758IAnA8GY-1552">
          <mxGeometry width="50" height="50" relative="1" as="geometry">
            <mxPoint x="1720" y="1300" as="sourcePoint" />
            <mxPoint x="1770" y="1250" as="targetPoint" />
          </mxGeometry>
        </mxCell>
      </root>
    </mxGraphModel>
  </diagram>
</mxfile>
